<svg width="100" height="100" viewBox="0 0 100 100" fill="none" xmlns="http://www.w3.org/2000/svg">
<path d="M62.5 90.5C58.9 83.7 48.6667 75.3333 44 72C44 73 43.8 75.3 43 76.5C42 78 38.5 80 35.5 82C32.5 84 29 83 25 82C21 81 18.5 77 17 75C15.8 73.4 15.8333 68 16 65.5C15.5 65.8333 14.1 66.3 12.5 65.5C10.5 64.5 7.50001 61 5.00001 58.5C2.50001 56 3.00001 50 3.50001 46.5C4.00001 43 7.00001 39.5 9.00001 35.5C10.6 32.3 17 32.1667 20 32.5C20 31.8333 19.9 29.9 19.5 27.5C19 24.5 20.5 20.5 22 18C23.5 15.5 29.5 11.5 31.5 9.5C33.5 7.5 40 7 45.5 7C49.9 7 54.3333 10.6667 56 12.5C55.8333 13.1667 56.1 13.3 58.5 8.5C61.5 2.5 67.5 3.5 70.5 3.5C73.5 3.5 78.5 5.5 80.5 7C82.5 8.5 84 10 86.5 13.5C89 17 84.5 23.5 88 24.5C90.8 25.3 94.1667 31.5 95.5 34.5C97 37.5 96 42 95.5 44C95 46 92.5 48 89.5 50C84 55.5 79.5 51.5 78.5 53C77.5 54.5 79 60.5 79.5 64C80 67.5 89 82.5 89.5 83C90 83.5 88.5 84.5 88 86.5C87.5 88.5 80 93 77.5 94C75.5 94.8 71.6667 96 70 96.5C69 97.3333 66.1 97.3 62.5 90.5Z" fill="white"/>
<path fill-rule="evenodd" clip-rule="evenodd" d="M31.9863 11.8773C20.9947 18.2233 19.2246 26.4057 21.7436 31.5619L23.3823 34.9159L19.8166 34.033C15.7968 33.0378 7.26452 35.0905 5.37345 46.553C4.35142 52.7479 5.88738 57.0134 8.10419 59.8441C10.3701 62.7374 13.4567 64.2697 15.6652 64.7416L17.1434 65.0575L17.0919 66.581C17.0318 68.3575 17.5132 71.4775 19.0372 74.4168C20.5381 77.3115 22.9887 79.9283 26.8552 81.0284C30.6515 82.1086 34.2007 80.9451 37.1162 79.0138C39.2275 77.6151 40.887 75.8885 41.91 74.5643C37.5787 72.6603 33.3323 71.8155 30.2318 71.9033L30.0418 68.3651C36.3199 68.1873 45.984 71.1654 53.3804 77.8458C57.1256 81.2285 59.9304 85.539 62.0645 89.143C62.612 90.0677 63.0855 90.893 63.5227 91.6552L63.5228 91.6554C63.9844 92.4601 64.4057 93.1945 64.8313 93.9014C65.6599 95.2774 66.2064 96.0206 66.5502 96.3092C66.6414 96.3858 67.0695 96.5971 68.1607 96.5619C69.1704 96.5294 70.4356 96.2964 71.828 95.9079C74.4589 95.1741 77.2758 93.9624 79.1878 92.901C81.0629 91.7759 83.5208 89.9422 85.4717 88.0308C86.5043 87.0191 87.3387 86.0399 87.8718 85.1817C88.4478 84.2543 88.4789 83.7779 88.4582 83.6607C88.3801 83.2186 88.0098 82.3737 87.2323 80.9682C86.8331 80.2465 86.4079 79.5147 85.9421 78.713L85.942 78.7129L85.942 78.7128L85.9419 78.7127L85.9418 78.7126L85.9414 78.7118C85.4999 77.952 85.0219 77.1293 84.4949 76.1929C82.4407 72.5427 80.1101 67.9584 79.0532 63.0236C76.9661 53.278 79.219 43.4195 82.512 38.0714L85.4812 40.005C83.8236 42.6972 82.4097 46.905 81.9176 51.7223C83.5114 51.4501 85.56 50.886 87.5632 49.8882C90.6935 48.3289 93.4757 45.837 94.4385 42.0092C95.419 38.1107 94.3781 34.68 92.6216 31.9328C90.8381 29.1433 88.3768 27.1665 86.8082 26.3302L85.4631 25.6131L85.9286 24.175C86.6242 22.0264 86.8405 18.5872 85.4678 15.1782C84.1247 11.843 81.1987 8.38013 75.3227 6.16777C64.4504 2.07423 58.4065 8.43702 57.2586 12.4159L56.2403 15.9453L54.1549 12.8492C50.9491 8.08956 42.9778 5.53133 31.9863 11.8773ZM81.732 55.3409C81.731 57.629 81.9522 59.9966 82.4583 62.3599C83.3943 66.7301 85.4931 70.9153 87.5098 74.499C87.9624 75.3032 88.4415 76.1294 88.8979 76.9164L88.898 76.9167L88.8982 76.9169L88.8983 76.9171L88.8984 76.9174L88.8986 76.9176C89.4021 77.7859 89.8781 78.6067 90.2604 79.2979C90.9898 80.6165 91.6872 81.9868 91.8885 83.1261C92.1471 84.5902 91.5236 86.0165 90.8339 87.1268C90.1013 88.3063 89.0588 89.4999 87.9262 90.6095C85.873 92.6212 83.3387 94.5358 81.284 95.8002L81.2893 95.8094C81.1858 95.8692 81.0797 95.9294 80.9712 95.9899C80.8645 96.0536 80.7593 96.1154 80.6557 96.1752L80.6504 96.166C78.528 97.3132 75.6028 98.5507 72.8341 99.323C71.3068 99.749 69.7519 100.055 68.364 100.1C67.0577 100.142 65.5108 99.9687 64.3721 99.0127C63.4861 98.2688 62.6481 96.9796 61.8708 95.6887C61.4634 95.012 60.9907 94.1896 60.4906 93.3195L60.4903 93.3191C60.0367 92.5299 59.5606 91.7015 59.0901 90.9071C56.9949 87.3687 54.4198 83.4585 51.1031 80.4628C49.232 78.7729 47.2019 77.3491 45.1305 76.1775C43.9077 77.9075 41.7945 80.1921 39.0746 81.9939C35.6748 84.246 31.0982 85.8861 25.9984 84.435C20.9687 83.0039 17.8109 79.565 15.9624 75.9999C14.4778 73.1366 13.7979 70.1255 13.639 67.8258C10.9523 66.9477 7.81141 65.0825 5.39868 62.0016C2.50376 58.305 0.761901 52.9909 1.93538 45.8779C3.83512 34.3629 11.7086 30.3472 17.6177 30.2753C15.8903 23.2103 19.7952 14.7977 30.2031 8.78873C40.611 2.77971 49.8489 3.60431 55.1037 8.63276C58.1205 3.55122 65.5349 -1.25953 76.4571 2.85278C83.2038 5.39298 86.9351 9.55856 88.689 13.9139C90.1507 17.5438 90.1956 21.1966 89.6128 23.9623C91.5249 25.2498 93.7926 27.3442 95.53 30.0615C97.6932 33.4449 99.0925 37.8991 97.817 42.9705C96.5238 48.1126 92.8152 51.256 89.1648 53.0742C86.5249 54.3892 83.7911 55.0775 81.732 55.3409ZM41.3209 41.5782L42.7453 40.7558L47.1808 38.195L47.8144 37.8291L52.25 35.2683L53.6744 34.4459L54.5926 35.872C57.3106 40.0934 61.318 46.0881 64.5212 50.3826C65.2335 51.3376 65.8889 52.185 66.4697 52.8997C66.5293 50.5855 66.9207 47.9959 67.4102 45.5732C68.1641 41.8418 69.2144 38.2142 69.9577 35.996L73.2606 37.2157C72.556 39.3187 71.5462 42.8052 70.8254 46.3729C70.0894 50.0157 69.7157 53.4634 70.098 55.6273C70.1651 56.0076 70.2221 56.502 70.1307 56.9855C70.0298 57.5186 69.6333 58.4235 68.5572 58.6176C67.7877 58.7564 67.1552 58.3992 66.9115 58.2514C66.5838 58.0526 66.27 57.7914 65.9898 57.5318C64.8895 56.5127 63.376 54.6338 61.7632 52.4715C58.8367 48.548 55.2864 43.2835 52.6126 39.177L49.5976 40.9177L48.964 41.2835L45.949 43.0242C48.1684 47.393 50.9525 53.1 52.8871 57.5962C53.9532 60.074 54.8237 62.3242 55.1561 63.7866C55.2408 64.1591 55.3102 64.5614 55.3185 64.9447C55.3246 65.2296 55.3177 65.9559 54.8128 66.5529C54.1066 67.3879 53.1246 67.2788 52.6126 67.0996C52.1482 66.937 51.7484 66.6405 51.4527 66.3921C49.7698 64.9792 46.5972 63.579 43.0744 62.3949C39.6243 61.2353 36.1 60.3665 33.9265 59.9253L34.5216 56.455C36.8142 56.9204 40.4811 57.8246 44.0894 59.0374C46.4323 59.8249 48.8707 60.7807 50.9047 61.8862C50.576 61.0259 50.1699 60.0346 49.699 58.9401C47.5815 54.0188 44.3937 47.551 42.0968 43.0865L41.3209 41.5782ZM51.8338 64.928C51.8341 64.9407 51.8338 64.9482 51.8334 64.9512C51.8326 64.9573 51.8313 64.9436 51.8332 64.9143L51.8338 64.928ZM68.6394 55.2253C68.6727 55.2454 68.6668 55.2372 68.6279 55.2179L68.6394 55.2253Z" fill="#2B5926"/>
<path fill-rule="evenodd" clip-rule="evenodd" d="M23.1953 41.855C22.029 42.2206 19.2782 43.8371 18.4109 47.1079C17.5305 50.4282 19.034 53.7332 19.8849 54.9183L17.3924 56.712C16.233 55.0975 14.2365 50.8391 15.4392 46.3033C16.655 41.7181 20.4296 39.488 22.2656 38.9123L23.1953 41.855Z" fill="#2B5926"/>
<path fill-rule="evenodd" clip-rule="evenodd" d="M40.6698 17.3913C39.136 17.2847 37.4433 17.508 35.9182 18.3885C32.8394 20.166 31.8531 23.8344 31.5659 25.5904L28.1113 25.0253C28.4253 23.1059 29.6219 17.9816 34.1679 15.357C36.4552 14.0364 38.8915 13.7588 40.9123 13.8992C42.9124 14.038 44.6391 14.5948 45.6249 15.1086L44.007 18.2128C43.478 17.937 42.2244 17.4992 40.6698 17.3913Z" fill="#2B5926"/>
<path fill-rule="evenodd" clip-rule="evenodd" d="M62.3431 19.2529C63.2429 18.4257 66.0183 16.8517 69.2845 17.736C72.6002 18.6337 74.7106 21.5882 75.3115 22.9177L78.1112 21.656C77.2926 19.8446 74.603 15.9864 70.0736 14.7601C65.4948 13.5204 61.6761 15.6742 60.2596 16.9764L62.3431 19.2529Z" fill="#2B5926"/>
</svg>
